<svg version="1.1" id="Layer_1" xmlns:x="ns_extend;" xmlns:i="ns_ai;" xmlns:graph="ns_graphs;" xmlns="http://www.w3.org/2000/svg" xmlns:xlink="http://www.w3.org/1999/xlink" x="0px" y="0px" viewBox="0 0 46.4 66" style="enable-background:new 0 0 46.4 66;" xml:space="preserve">
 <style type="text/css">
  .st0{fill:#009CA6;}
 </style>
 <metadata>
  <sfw xmlns="ns_sfw;">
   <slices>
   </slices>
   <sliceSourceBounds bottomLeftOrigin="true" height="66" width="46.4" x="-187" y="0.4">
   </sliceSourceBounds>
  </sfw>
 </metadata>
 <g>
  <path class="st0" d="M6.2,24.7H0v10.5v9.5h6.2V24.7z">
  </path>
  <path class="st0" d="M13.4,24.7v10.5v9.5h6.2V24.7H13.4z">
  </path>
  <path class="st0" d="M26.8,24.7v10.5v9.5H33V24.7H26.8z">
  </path>
  <path class="st0" d="M0,21h23.2h23.2v-5.6H0V21z">
  </path>
  <path class="st0" d="M23.2,0L0,7.7v5.8l23.2-7.7l23.2,7.7V7.7L23.2,0z">
  </path>
  <path class="st0" d="M46.4,44.2c-0.1,0.3-2.4,4.2-17.2,4.2h-12C2,48.5,0.3,50.5,0,50.7v5.7c0.3-0.2,2-2.2,17.2-2.3h12
		c14.8,0,17.1-3.8,17.2-4.2V44.2z">
  </path>
  <path class="st0" d="M46.4,53.8c-0.1,0.3-2.4,4.2-17.2,4.2h-12C2,58.1,0.3,60.1,0,60.3V66c0.3-0.2,2-2.2,17.2-2.3h12
		c14.8,0,17.1-3.8,17.2-4.2V53.8z">
  </path>
  <path class="st0" d="M40.2,24.7v18.9c5.1-1.2,6.2-3,6.2-3.2V24.7H40.2z">
  </path>
 </g>
</svg>